<mxfile host="app.diagrams.net" modified="2024-07-18T23:34:12.410Z" agent="Mozilla/5.0 (Windows NT 10.0; Win64; x64) AppleWebKit/537.36 (KHTML, like Gecko) Chrome/126.0.0.0 Safari/537.36" etag="L5gfe42ZVWs9RU8dyQ_E" version="24.7.1" type="github">
  <diagram name="Page-1" id="wJ74eyJXx-OFAF-DhMfI">
    <mxGraphModel dx="6050" dy="2957" grid="1" gridSize="10" guides="1" tooltips="1" connect="1" arrows="1" fold="1" page="1" pageScale="1" pageWidth="850" pageHeight="1100" math="0" shadow="0">
      <root>
        <mxCell id="0" />
        <mxCell id="1" parent="0" />
        <mxCell id="4CmnmaqwzRjnCDpZ8KeK-4" value="Página de Login" style="strokeWidth=1;shadow=0;dashed=0;align=center;html=1;shape=mxgraph.mockup.containers.window;align=left;verticalAlign=top;spacingLeft=8;strokeColor2=#008cff;strokeColor3=#c4c4c4;fontColor=#666666;mainText=;fontSize=17;labelBackgroundColor=none;whiteSpace=wrap;" vertex="1" parent="1">
          <mxGeometry x="-2535" y="-60" width="820" height="470" as="geometry" />
        </mxCell>
        <mxCell id="4CmnmaqwzRjnCDpZ8KeK-6" value="" style="shape=mxgraph.mockup.containers.marginRect;rectMarginTop=10;strokeColor=#666666;strokeWidth=1;dashed=0;rounded=1;arcSize=5;recursiveResize=0;html=1;whiteSpace=wrap;" vertex="1" parent="1">
          <mxGeometry x="-2255" y="20" width="280" height="320" as="geometry" />
        </mxCell>
        <mxCell id="4CmnmaqwzRjnCDpZ8KeK-14" value="Usuário" style="html=1;shadow=0;dashed=0;shape=mxgraph.bootstrap.rrect;rSize=5;strokeColor=#CED4DA;html=1;whiteSpace=wrap;fillColor=#FFFFFF;fontColor=#7D868C;align=left;spacing=15;spacingLeft=40;fontSize=14;" vertex="1" parent="1">
          <mxGeometry x="-2225" y="150" width="230" height="30" as="geometry" />
        </mxCell>
        <mxCell id="4CmnmaqwzRjnCDpZ8KeK-26" value="Senha" style="html=1;shadow=0;dashed=0;shape=mxgraph.bootstrap.rrect;rSize=5;strokeColor=#CED4DA;html=1;whiteSpace=wrap;fillColor=#FFFFFF;fontColor=#7D868C;align=left;spacing=15;spacingLeft=40;fontSize=14;" vertex="1" parent="1">
          <mxGeometry x="-2225" y="200" width="230" height="30" as="geometry" />
        </mxCell>
        <mxCell id="4CmnmaqwzRjnCDpZ8KeK-27" value="&lt;span style=&quot;font-size: 10px;&quot;&gt;Login&lt;/span&gt;" style="strokeWidth=1;shadow=0;dashed=0;align=center;html=1;shape=mxgraph.mockup.buttons.button;strokeColor=#666666;fontColor=#ffffff;mainText=;buttonStyle=round;fontSize=17;fontStyle=1;fillColor=#008cff;whiteSpace=wrap;" vertex="1" parent="1">
          <mxGeometry x="-2225" y="280" width="220" height="30" as="geometry" />
        </mxCell>
        <mxCell id="4CmnmaqwzRjnCDpZ8KeK-29" value="" style="verticalLabelPosition=bottom;verticalAlign=top;html=1;shape=mxgraph.basic.smiley" vertex="1" parent="1">
          <mxGeometry x="-2160" y="40" width="90" height="80" as="geometry" />
        </mxCell>
        <mxCell id="4CmnmaqwzRjnCDpZ8KeK-37" value="Página Home" style="strokeWidth=1;shadow=0;dashed=0;align=center;html=1;shape=mxgraph.mockup.containers.window;align=left;verticalAlign=top;spacingLeft=8;strokeColor2=#008cff;strokeColor3=#c4c4c4;fontColor=#666666;mainText=;fontSize=17;labelBackgroundColor=none;whiteSpace=wrap;" vertex="1" parent="1">
          <mxGeometry x="-1160" y="-65" width="820" height="470" as="geometry" />
        </mxCell>
        <mxCell id="4CmnmaqwzRjnCDpZ8KeK-43" value="" style="rounded=0;whiteSpace=wrap;html=1;" vertex="1" parent="1">
          <mxGeometry x="-1160" y="-34" width="820" height="34" as="geometry" />
        </mxCell>
        <mxCell id="4CmnmaqwzRjnCDpZ8KeK-44" value="" style="rounded=0;whiteSpace=wrap;html=1;" vertex="1" parent="1">
          <mxGeometry x="-1160" width="100" height="405" as="geometry" />
        </mxCell>
        <mxCell id="4CmnmaqwzRjnCDpZ8KeK-48" value="&lt;span style=&quot;font-size: 7px;&quot;&gt;DESLOGAR&lt;/span&gt;" style="html=1;shadow=0;dashed=0;shape=mxgraph.bootstrap.rrect;rSize=5;strokeColor=#0085FC;strokeWidth=1;fillColor=none;fontColor=#0085FC;whiteSpace=wrap;align=center;verticalAlign=middle;spacingLeft=0;fontStyle=0;fontSize=16;spacing=5;" vertex="1" parent="1">
          <mxGeometry x="-400" y="-27" width="50" height="20" as="geometry" />
        </mxCell>
        <mxCell id="4CmnmaqwzRjnCDpZ8KeK-49" value="&lt;span style=&quot;font-size: 7px;&quot;&gt;PERFIL&lt;/span&gt;" style="html=1;shadow=0;dashed=0;shape=mxgraph.bootstrap.rrect;rSize=5;strokeColor=#0085FC;strokeWidth=1;fillColor=none;fontColor=#0085FC;whiteSpace=wrap;align=center;verticalAlign=middle;spacingLeft=0;fontStyle=0;fontSize=16;spacing=5;" vertex="1" parent="1">
          <mxGeometry x="-460" y="-27" width="50" height="20" as="geometry" />
        </mxCell>
        <mxCell id="4CmnmaqwzRjnCDpZ8KeK-51" value="ICONES" style="strokeWidth=1;shadow=0;dashed=0;align=center;html=1;shape=mxgraph.mockup.text.callout;linkText=;textSize=17;textColor=#666666;callDir=NE;callStyle=line;fontSize=17;fontColor=#666666;align=right;verticalAlign=top;strokeColor=#666666;" vertex="1" parent="1">
          <mxGeometry x="-350" y="-120" width="200" height="100" as="geometry" />
        </mxCell>
        <mxCell id="4CmnmaqwzRjnCDpZ8KeK-52" value="Nome/logo do banco" style="strokeWidth=1;shadow=0;dashed=0;align=center;html=1;shape=mxgraph.mockup.text.callout;linkText=;textSize=17;textColor=#666666;callDir=NW;callStyle=line;fontSize=17;fontColor=#666666;align=left;verticalAlign=top;strokeColor=#666666;" vertex="1" parent="1">
          <mxGeometry x="-1310" y="-120" width="200" height="100" as="geometry" />
        </mxCell>
        <mxCell id="4CmnmaqwzRjnCDpZ8KeK-53" value="Agencias" style="text;html=1;align=center;verticalAlign=middle;whiteSpace=wrap;rounded=0;" vertex="1" parent="1">
          <mxGeometry x="-1140" y="15" width="60" height="30" as="geometry" />
        </mxCell>
        <mxCell id="4CmnmaqwzRjnCDpZ8KeK-54" value="Contas" style="text;html=1;align=center;verticalAlign=middle;whiteSpace=wrap;rounded=0;" vertex="1" parent="1">
          <mxGeometry x="-1140" y="35" width="60" height="30" as="geometry" />
        </mxCell>
        <mxCell id="4CmnmaqwzRjnCDpZ8KeK-57" value="Agencias" style="text;html=1;align=center;verticalAlign=middle;whiteSpace=wrap;rounded=0;" vertex="1" parent="1">
          <mxGeometry x="-1140" y="50" width="60" height="30" as="geometry" />
        </mxCell>
        <mxCell id="4CmnmaqwzRjnCDpZ8KeK-58" value="Contas" style="text;html=1;align=center;verticalAlign=middle;whiteSpace=wrap;rounded=0;" vertex="1" parent="1">
          <mxGeometry x="-1140" y="70" width="60" height="30" as="geometry" />
        </mxCell>
        <mxCell id="4CmnmaqwzRjnCDpZ8KeK-59" value="Agencias" style="text;html=1;align=center;verticalAlign=middle;whiteSpace=wrap;rounded=0;" vertex="1" parent="1">
          <mxGeometry x="-1140" y="90" width="60" height="30" as="geometry" />
        </mxCell>
        <mxCell id="4CmnmaqwzRjnCDpZ8KeK-60" value="Contas" style="text;html=1;align=center;verticalAlign=middle;whiteSpace=wrap;rounded=0;" vertex="1" parent="1">
          <mxGeometry x="-1140" y="110" width="60" height="30" as="geometry" />
        </mxCell>
        <mxCell id="4CmnmaqwzRjnCDpZ8KeK-61" value="Sidebar&amp;nbsp;" style="strokeWidth=1;shadow=0;dashed=0;align=center;html=1;shape=mxgraph.mockup.text.callout;linkText=;textSize=17;textColor=#666666;callDir=SW;callStyle=line;fontSize=17;fontColor=#666666;align=left;verticalAlign=bottom;strokeColor=#666666;" vertex="1" parent="1">
          <mxGeometry x="-1320" y="380" width="180" height="100" as="geometry" />
        </mxCell>
        <mxCell id="4CmnmaqwzRjnCDpZ8KeK-63" value="Links para outras telas" style="strokeWidth=1;shadow=0;dashed=0;align=center;html=1;shape=mxgraph.mockup.text.callout;linkText=;textSize=17;textColor=#666666;callDir=NW;callStyle=line;fontSize=17;fontColor=#666666;align=left;verticalAlign=top;strokeColor=#666666;" vertex="1" parent="1">
          <mxGeometry x="-1350" y="-20" width="210" height="80" as="geometry" />
        </mxCell>
        <mxCell id="4CmnmaqwzRjnCDpZ8KeK-66" value="&lt;font style=&quot;font-size: 31px;&quot;&gt;2630&lt;/font&gt;" style="html=1;shadow=0;dashed=0;shape=mxgraph.bootstrap.rrect;rSize=5;strokeColor=#0071D5;html=1;whiteSpace=wrap;fillColor=#0085FC;fontColor=#ffffff;verticalAlign=bottom;align=left;spacing=20;spacingBottom=0;fontSize=14;" vertex="1" parent="1">
          <mxGeometry x="-1020" y="39" width="120" height="85" as="geometry" />
        </mxCell>
        <mxCell id="4CmnmaqwzRjnCDpZ8KeK-67" value="&lt;font size=&quot;1&quot;&gt;Contas pendentes&lt;/font&gt;" style="html=1;shadow=0;dashed=0;shape=mxgraph.bootstrap.topButton;rSize=5;perimeter=none;whiteSpace=wrap;fillColor=#0081F4;strokeColor=#0071D5;fontColor=#ffffff;resizeWidth=1;fontSize=18;align=left;spacing=20;" vertex="1" parent="4CmnmaqwzRjnCDpZ8KeK-66">
          <mxGeometry width="119.99999999999999" height="20" relative="1" as="geometry" />
        </mxCell>
        <mxCell id="4CmnmaqwzRjnCDpZ8KeK-68" value="&lt;font style=&quot;font-size: 31px;&quot;&gt;2630&lt;/font&gt;" style="html=1;shadow=0;dashed=0;shape=mxgraph.bootstrap.rrect;rSize=5;strokeColor=#0071D5;html=1;whiteSpace=wrap;fillColor=#0085FC;fontColor=#ffffff;verticalAlign=bottom;align=left;spacing=20;spacingBottom=0;fontSize=14;" vertex="1" parent="1">
          <mxGeometry x="-890" y="39" width="120" height="85" as="geometry" />
        </mxCell>
        <mxCell id="4CmnmaqwzRjnCDpZ8KeK-69" value="&lt;font size=&quot;1&quot;&gt;Contas pendentes&lt;/font&gt;" style="html=1;shadow=0;dashed=0;shape=mxgraph.bootstrap.topButton;rSize=5;perimeter=none;whiteSpace=wrap;fillColor=#0081F4;strokeColor=#0071D5;fontColor=#ffffff;resizeWidth=1;fontSize=18;align=left;spacing=20;" vertex="1" parent="4CmnmaqwzRjnCDpZ8KeK-68">
          <mxGeometry width="119.99999999999999" height="20" relative="1" as="geometry" />
        </mxCell>
        <mxCell id="4CmnmaqwzRjnCDpZ8KeK-70" value="&lt;font style=&quot;font-size: 31px;&quot;&gt;2630&lt;/font&gt;" style="html=1;shadow=0;dashed=0;shape=mxgraph.bootstrap.rrect;rSize=5;strokeColor=#0071D5;html=1;whiteSpace=wrap;fillColor=#0085FC;fontColor=#ffffff;verticalAlign=bottom;align=left;spacing=20;spacingBottom=0;fontSize=14;" vertex="1" parent="1">
          <mxGeometry x="-760" y="39" width="120" height="85" as="geometry" />
        </mxCell>
        <mxCell id="4CmnmaqwzRjnCDpZ8KeK-71" value="&lt;font size=&quot;1&quot;&gt;Contas pendentes&lt;/font&gt;" style="html=1;shadow=0;dashed=0;shape=mxgraph.bootstrap.topButton;rSize=5;perimeter=none;whiteSpace=wrap;fillColor=#0081F4;strokeColor=#0071D5;fontColor=#ffffff;resizeWidth=1;fontSize=18;align=left;spacing=20;" vertex="1" parent="4CmnmaqwzRjnCDpZ8KeK-70">
          <mxGeometry width="119.99999999999999" height="20" relative="1" as="geometry" />
        </mxCell>
        <mxCell id="4CmnmaqwzRjnCDpZ8KeK-72" value="&lt;font style=&quot;font-size: 31px;&quot;&gt;2630&lt;/font&gt;" style="html=1;shadow=0;dashed=0;shape=mxgraph.bootstrap.rrect;rSize=5;strokeColor=#0071D5;html=1;whiteSpace=wrap;fillColor=#0085FC;fontColor=#ffffff;verticalAlign=bottom;align=left;spacing=20;spacingBottom=0;fontSize=14;" vertex="1" parent="1">
          <mxGeometry x="-630" y="39" width="120" height="85" as="geometry" />
        </mxCell>
        <mxCell id="4CmnmaqwzRjnCDpZ8KeK-73" value="&lt;font size=&quot;1&quot;&gt;Contas pendentes&lt;/font&gt;" style="html=1;shadow=0;dashed=0;shape=mxgraph.bootstrap.topButton;rSize=5;perimeter=none;whiteSpace=wrap;fillColor=#0081F4;strokeColor=#0071D5;fontColor=#ffffff;resizeWidth=1;fontSize=18;align=left;spacing=20;" vertex="1" parent="4CmnmaqwzRjnCDpZ8KeK-72">
          <mxGeometry width="119.99999999999999" height="20" relative="1" as="geometry" />
        </mxCell>
        <mxCell id="4CmnmaqwzRjnCDpZ8KeK-74" value="&lt;font style=&quot;font-size: 31px;&quot;&gt;2630&lt;/font&gt;" style="html=1;shadow=0;dashed=0;shape=mxgraph.bootstrap.rrect;rSize=5;strokeColor=#0071D5;html=1;whiteSpace=wrap;fillColor=#0085FC;fontColor=#ffffff;verticalAlign=bottom;align=left;spacing=20;spacingBottom=0;fontSize=14;" vertex="1" parent="1">
          <mxGeometry x="-1020" y="132.5" width="120" height="85" as="geometry" />
        </mxCell>
        <mxCell id="4CmnmaqwzRjnCDpZ8KeK-75" value="&lt;font size=&quot;1&quot;&gt;Contas pendentes&lt;/font&gt;" style="html=1;shadow=0;dashed=0;shape=mxgraph.bootstrap.topButton;rSize=5;perimeter=none;whiteSpace=wrap;fillColor=#0081F4;strokeColor=#0071D5;fontColor=#ffffff;resizeWidth=1;fontSize=18;align=left;spacing=20;" vertex="1" parent="4CmnmaqwzRjnCDpZ8KeK-74">
          <mxGeometry width="119.99999999999999" height="20" relative="1" as="geometry" />
        </mxCell>
        <mxCell id="4CmnmaqwzRjnCDpZ8KeK-76" value="&lt;font style=&quot;font-size: 31px;&quot;&gt;2630&lt;/font&gt;" style="html=1;shadow=0;dashed=0;shape=mxgraph.bootstrap.rrect;rSize=5;strokeColor=#0071D5;html=1;whiteSpace=wrap;fillColor=#0085FC;fontColor=#ffffff;verticalAlign=bottom;align=left;spacing=20;spacingBottom=0;fontSize=14;" vertex="1" parent="1">
          <mxGeometry x="-890" y="132.5" width="120" height="85" as="geometry" />
        </mxCell>
        <mxCell id="4CmnmaqwzRjnCDpZ8KeK-77" value="&lt;font size=&quot;1&quot;&gt;Contas pendentes&lt;/font&gt;" style="html=1;shadow=0;dashed=0;shape=mxgraph.bootstrap.topButton;rSize=5;perimeter=none;whiteSpace=wrap;fillColor=#0081F4;strokeColor=#0071D5;fontColor=#ffffff;resizeWidth=1;fontSize=18;align=left;spacing=20;" vertex="1" parent="4CmnmaqwzRjnCDpZ8KeK-76">
          <mxGeometry width="119.99999999999999" height="20" relative="1" as="geometry" />
        </mxCell>
        <mxCell id="4CmnmaqwzRjnCDpZ8KeK-78" value="&lt;font style=&quot;font-size: 31px;&quot;&gt;2630&lt;/font&gt;" style="html=1;shadow=0;dashed=0;shape=mxgraph.bootstrap.rrect;rSize=5;strokeColor=#0071D5;html=1;whiteSpace=wrap;fillColor=#0085FC;fontColor=#ffffff;verticalAlign=bottom;align=left;spacing=20;spacingBottom=0;fontSize=14;" vertex="1" parent="1">
          <mxGeometry x="-760" y="132.5" width="120" height="85" as="geometry" />
        </mxCell>
        <mxCell id="4CmnmaqwzRjnCDpZ8KeK-79" value="&lt;font size=&quot;1&quot;&gt;Contas pendentes&lt;/font&gt;" style="html=1;shadow=0;dashed=0;shape=mxgraph.bootstrap.topButton;rSize=5;perimeter=none;whiteSpace=wrap;fillColor=#0081F4;strokeColor=#0071D5;fontColor=#ffffff;resizeWidth=1;fontSize=18;align=left;spacing=20;" vertex="1" parent="4CmnmaqwzRjnCDpZ8KeK-78">
          <mxGeometry width="119.99999999999999" height="20" relative="1" as="geometry" />
        </mxCell>
        <mxCell id="4CmnmaqwzRjnCDpZ8KeK-80" value="&lt;font style=&quot;font-size: 31px;&quot;&gt;2630&lt;/font&gt;" style="html=1;shadow=0;dashed=0;shape=mxgraph.bootstrap.rrect;rSize=5;strokeColor=#0071D5;html=1;whiteSpace=wrap;fillColor=#0085FC;fontColor=#ffffff;verticalAlign=bottom;align=left;spacing=20;spacingBottom=0;fontSize=14;" vertex="1" parent="1">
          <mxGeometry x="-630" y="132.5" width="120" height="85" as="geometry" />
        </mxCell>
        <mxCell id="4CmnmaqwzRjnCDpZ8KeK-81" value="&lt;font size=&quot;1&quot;&gt;Contas pendentes&lt;/font&gt;" style="html=1;shadow=0;dashed=0;shape=mxgraph.bootstrap.topButton;rSize=5;perimeter=none;whiteSpace=wrap;fillColor=#0081F4;strokeColor=#0071D5;fontColor=#ffffff;resizeWidth=1;fontSize=18;align=left;spacing=20;" vertex="1" parent="4CmnmaqwzRjnCDpZ8KeK-80">
          <mxGeometry width="119.99999999999999" height="20" relative="1" as="geometry" />
        </mxCell>
        <mxCell id="4CmnmaqwzRjnCDpZ8KeK-82" value="&lt;font style=&quot;font-size: 31px;&quot;&gt;2630&lt;/font&gt;" style="html=1;shadow=0;dashed=0;shape=mxgraph.bootstrap.rrect;rSize=5;strokeColor=#0071D5;html=1;whiteSpace=wrap;fillColor=#0085FC;fontColor=#ffffff;verticalAlign=bottom;align=left;spacing=20;spacingBottom=0;fontSize=14;" vertex="1" parent="1">
          <mxGeometry x="-1020" y="225" width="120" height="85" as="geometry" />
        </mxCell>
        <mxCell id="4CmnmaqwzRjnCDpZ8KeK-83" value="&lt;font size=&quot;1&quot;&gt;Contas pendentes&lt;/font&gt;" style="html=1;shadow=0;dashed=0;shape=mxgraph.bootstrap.topButton;rSize=5;perimeter=none;whiteSpace=wrap;fillColor=#0081F4;strokeColor=#0071D5;fontColor=#ffffff;resizeWidth=1;fontSize=18;align=left;spacing=20;" vertex="1" parent="4CmnmaqwzRjnCDpZ8KeK-82">
          <mxGeometry width="119.99999999999999" height="20" relative="1" as="geometry" />
        </mxCell>
        <mxCell id="4CmnmaqwzRjnCDpZ8KeK-84" value="&lt;font style=&quot;font-size: 31px;&quot;&gt;2630&lt;/font&gt;" style="html=1;shadow=0;dashed=0;shape=mxgraph.bootstrap.rrect;rSize=5;strokeColor=#0071D5;html=1;whiteSpace=wrap;fillColor=#0085FC;fontColor=#ffffff;verticalAlign=bottom;align=left;spacing=20;spacingBottom=0;fontSize=14;" vertex="1" parent="1">
          <mxGeometry x="-890" y="225" width="120" height="85" as="geometry" />
        </mxCell>
        <mxCell id="4CmnmaqwzRjnCDpZ8KeK-85" value="&lt;font size=&quot;1&quot;&gt;Contas pendentes&lt;/font&gt;" style="html=1;shadow=0;dashed=0;shape=mxgraph.bootstrap.topButton;rSize=5;perimeter=none;whiteSpace=wrap;fillColor=#0081F4;strokeColor=#0071D5;fontColor=#ffffff;resizeWidth=1;fontSize=18;align=left;spacing=20;" vertex="1" parent="4CmnmaqwzRjnCDpZ8KeK-84">
          <mxGeometry width="119.99999999999999" height="20" relative="1" as="geometry" />
        </mxCell>
        <mxCell id="4CmnmaqwzRjnCDpZ8KeK-86" value="&lt;font style=&quot;font-size: 31px;&quot;&gt;2630&lt;/font&gt;" style="html=1;shadow=0;dashed=0;shape=mxgraph.bootstrap.rrect;rSize=5;strokeColor=#0071D5;html=1;whiteSpace=wrap;fillColor=#0085FC;fontColor=#ffffff;verticalAlign=bottom;align=left;spacing=20;spacingBottom=0;fontSize=14;" vertex="1" parent="1">
          <mxGeometry x="-760" y="225" width="120" height="85" as="geometry" />
        </mxCell>
        <mxCell id="4CmnmaqwzRjnCDpZ8KeK-87" value="&lt;font size=&quot;1&quot;&gt;Contas pendentes&lt;/font&gt;" style="html=1;shadow=0;dashed=0;shape=mxgraph.bootstrap.topButton;rSize=5;perimeter=none;whiteSpace=wrap;fillColor=#0081F4;strokeColor=#0071D5;fontColor=#ffffff;resizeWidth=1;fontSize=18;align=left;spacing=20;" vertex="1" parent="4CmnmaqwzRjnCDpZ8KeK-86">
          <mxGeometry width="119.99999999999999" height="20" relative="1" as="geometry" />
        </mxCell>
        <mxCell id="4CmnmaqwzRjnCDpZ8KeK-88" value="&lt;font style=&quot;font-size: 31px;&quot;&gt;2630&lt;/font&gt;" style="html=1;shadow=0;dashed=0;shape=mxgraph.bootstrap.rrect;rSize=5;strokeColor=#0071D5;html=1;whiteSpace=wrap;fillColor=#0085FC;fontColor=#ffffff;verticalAlign=bottom;align=left;spacing=20;spacingBottom=0;fontSize=14;" vertex="1" parent="1">
          <mxGeometry x="-630" y="225" width="120" height="85" as="geometry" />
        </mxCell>
        <mxCell id="4CmnmaqwzRjnCDpZ8KeK-89" value="&lt;font size=&quot;1&quot;&gt;Contas pendentes&lt;/font&gt;" style="html=1;shadow=0;dashed=0;shape=mxgraph.bootstrap.topButton;rSize=5;perimeter=none;whiteSpace=wrap;fillColor=#0081F4;strokeColor=#0071D5;fontColor=#ffffff;resizeWidth=1;fontSize=18;align=left;spacing=20;" vertex="1" parent="4CmnmaqwzRjnCDpZ8KeK-88">
          <mxGeometry width="119.99999999999999" height="20" relative="1" as="geometry" />
        </mxCell>
        <mxCell id="4CmnmaqwzRjnCDpZ8KeK-90" value="Cards de atalhos" style="strokeWidth=1;shadow=0;dashed=0;align=center;html=1;shape=mxgraph.mockup.text.callout;linkText=;textSize=17;textColor=#666666;callDir=NE;callStyle=line;fontSize=17;fontColor=#666666;align=right;verticalAlign=top;strokeColor=#666666;" vertex="1" parent="1">
          <mxGeometry x="-500" y="15" width="330" height="115" as="geometry" />
        </mxCell>
        <mxCell id="4CmnmaqwzRjnCDpZ8KeK-91" value="Home Page" style="strokeWidth=1;shadow=0;dashed=0;align=center;html=1;shape=mxgraph.mockup.containers.window;align=left;verticalAlign=top;spacingLeft=8;strokeColor2=#008cff;strokeColor3=#c4c4c4;fontColor=#666666;mainText=;fontSize=17;labelBackgroundColor=none;whiteSpace=wrap;" vertex="1" parent="1">
          <mxGeometry x="170" y="-95" width="820" height="470" as="geometry" />
        </mxCell>
        <mxCell id="4CmnmaqwzRjnCDpZ8KeK-92" value="" style="rounded=0;whiteSpace=wrap;html=1;" vertex="1" parent="1">
          <mxGeometry x="170" y="-64" width="820" height="34" as="geometry" />
        </mxCell>
        <mxCell id="4CmnmaqwzRjnCDpZ8KeK-93" value="" style="rounded=0;whiteSpace=wrap;html=1;" vertex="1" parent="1">
          <mxGeometry x="170" y="-30" width="100" height="405" as="geometry" />
        </mxCell>
        <mxCell id="4CmnmaqwzRjnCDpZ8KeK-94" value="&lt;span style=&quot;font-size: 7px;&quot;&gt;DESLOGAR&lt;/span&gt;" style="html=1;shadow=0;dashed=0;shape=mxgraph.bootstrap.rrect;rSize=5;strokeColor=#0085FC;strokeWidth=1;fillColor=none;fontColor=#0085FC;whiteSpace=wrap;align=center;verticalAlign=middle;spacingLeft=0;fontStyle=0;fontSize=16;spacing=5;" vertex="1" parent="1">
          <mxGeometry x="930" y="-57" width="50" height="20" as="geometry" />
        </mxCell>
        <mxCell id="4CmnmaqwzRjnCDpZ8KeK-95" value="&lt;span style=&quot;font-size: 7px;&quot;&gt;PERFIL&lt;/span&gt;" style="html=1;shadow=0;dashed=0;shape=mxgraph.bootstrap.rrect;rSize=5;strokeColor=#0085FC;strokeWidth=1;fillColor=none;fontColor=#0085FC;whiteSpace=wrap;align=center;verticalAlign=middle;spacingLeft=0;fontStyle=0;fontSize=16;spacing=5;" vertex="1" parent="1">
          <mxGeometry x="870" y="-57" width="50" height="20" as="geometry" />
        </mxCell>
        <mxCell id="4CmnmaqwzRjnCDpZ8KeK-98" value="Agencias" style="text;html=1;align=center;verticalAlign=middle;whiteSpace=wrap;rounded=0;" vertex="1" parent="1">
          <mxGeometry x="190" y="-15" width="60" height="30" as="geometry" />
        </mxCell>
        <mxCell id="4CmnmaqwzRjnCDpZ8KeK-99" value="Contas" style="text;html=1;align=center;verticalAlign=middle;whiteSpace=wrap;rounded=0;" vertex="1" parent="1">
          <mxGeometry x="190" y="5" width="60" height="30" as="geometry" />
        </mxCell>
        <mxCell id="4CmnmaqwzRjnCDpZ8KeK-100" value="Agencias" style="text;html=1;align=center;verticalAlign=middle;whiteSpace=wrap;rounded=0;" vertex="1" parent="1">
          <mxGeometry x="190" y="20" width="60" height="30" as="geometry" />
        </mxCell>
        <mxCell id="4CmnmaqwzRjnCDpZ8KeK-101" value="Contas" style="text;html=1;align=center;verticalAlign=middle;whiteSpace=wrap;rounded=0;" vertex="1" parent="1">
          <mxGeometry x="190" y="40" width="60" height="30" as="geometry" />
        </mxCell>
        <mxCell id="4CmnmaqwzRjnCDpZ8KeK-102" value="Agencias" style="text;html=1;align=center;verticalAlign=middle;whiteSpace=wrap;rounded=0;" vertex="1" parent="1">
          <mxGeometry x="190" y="60" width="60" height="30" as="geometry" />
        </mxCell>
        <mxCell id="4CmnmaqwzRjnCDpZ8KeK-103" value="Contas" style="text;html=1;align=center;verticalAlign=middle;whiteSpace=wrap;rounded=0;" vertex="1" parent="1">
          <mxGeometry x="190" y="80" width="60" height="30" as="geometry" />
        </mxCell>
        <mxCell id="4CmnmaqwzRjnCDpZ8KeK-131" value="Página de agências" style="strokeWidth=1;shadow=0;dashed=0;align=center;html=1;shape=mxgraph.mockup.containers.window;align=left;verticalAlign=top;spacingLeft=8;strokeColor2=#008cff;strokeColor3=#c4c4c4;fontColor=#666666;mainText=;fontSize=17;labelBackgroundColor=none;whiteSpace=wrap;" vertex="1" parent="1">
          <mxGeometry x="-1160" y="570" width="820" height="470" as="geometry" />
        </mxCell>
        <mxCell id="4CmnmaqwzRjnCDpZ8KeK-132" value="" style="rounded=0;whiteSpace=wrap;html=1;" vertex="1" parent="1">
          <mxGeometry x="-1160" y="601" width="820" height="34" as="geometry" />
        </mxCell>
        <mxCell id="4CmnmaqwzRjnCDpZ8KeK-133" value="" style="rounded=0;whiteSpace=wrap;html=1;" vertex="1" parent="1">
          <mxGeometry x="-1160" y="635" width="100" height="405" as="geometry" />
        </mxCell>
        <mxCell id="4CmnmaqwzRjnCDpZ8KeK-134" value="&lt;span style=&quot;font-size: 7px;&quot;&gt;DESLOGAR&lt;/span&gt;" style="html=1;shadow=0;dashed=0;shape=mxgraph.bootstrap.rrect;rSize=5;strokeColor=#0085FC;strokeWidth=1;fillColor=none;fontColor=#0085FC;whiteSpace=wrap;align=center;verticalAlign=middle;spacingLeft=0;fontStyle=0;fontSize=16;spacing=5;" vertex="1" parent="1">
          <mxGeometry x="-400" y="608" width="50" height="20" as="geometry" />
        </mxCell>
        <mxCell id="4CmnmaqwzRjnCDpZ8KeK-135" value="&lt;span style=&quot;font-size: 7px;&quot;&gt;PERFIL&lt;/span&gt;" style="html=1;shadow=0;dashed=0;shape=mxgraph.bootstrap.rrect;rSize=5;strokeColor=#0085FC;strokeWidth=1;fillColor=none;fontColor=#0085FC;whiteSpace=wrap;align=center;verticalAlign=middle;spacingLeft=0;fontStyle=0;fontSize=16;spacing=5;" vertex="1" parent="1">
          <mxGeometry x="-460" y="608" width="50" height="20" as="geometry" />
        </mxCell>
        <mxCell id="4CmnmaqwzRjnCDpZ8KeK-136" value="Agencias" style="text;html=1;align=center;verticalAlign=middle;whiteSpace=wrap;rounded=0;" vertex="1" parent="1">
          <mxGeometry x="-1140" y="650" width="60" height="30" as="geometry" />
        </mxCell>
        <mxCell id="4CmnmaqwzRjnCDpZ8KeK-137" value="Contas" style="text;html=1;align=center;verticalAlign=middle;whiteSpace=wrap;rounded=0;" vertex="1" parent="1">
          <mxGeometry x="-1140" y="670" width="60" height="30" as="geometry" />
        </mxCell>
        <mxCell id="4CmnmaqwzRjnCDpZ8KeK-138" value="Agencias" style="text;html=1;align=center;verticalAlign=middle;whiteSpace=wrap;rounded=0;" vertex="1" parent="1">
          <mxGeometry x="-1140" y="685" width="60" height="30" as="geometry" />
        </mxCell>
        <mxCell id="4CmnmaqwzRjnCDpZ8KeK-139" value="Contas" style="text;html=1;align=center;verticalAlign=middle;whiteSpace=wrap;rounded=0;" vertex="1" parent="1">
          <mxGeometry x="-1140" y="705" width="60" height="30" as="geometry" />
        </mxCell>
        <mxCell id="4CmnmaqwzRjnCDpZ8KeK-140" value="Agencias" style="text;html=1;align=center;verticalAlign=middle;whiteSpace=wrap;rounded=0;" vertex="1" parent="1">
          <mxGeometry x="-1140" y="725" width="60" height="30" as="geometry" />
        </mxCell>
        <mxCell id="4CmnmaqwzRjnCDpZ8KeK-141" value="Contas" style="text;html=1;align=center;verticalAlign=middle;whiteSpace=wrap;rounded=0;" vertex="1" parent="1">
          <mxGeometry x="-1140" y="745" width="60" height="30" as="geometry" />
        </mxCell>
        <mxCell id="4CmnmaqwzRjnCDpZ8KeK-146" value="" style="shape=mxgraph.mockup.containers.marginRect;rectMarginTop=10;strokeColor=#666666;strokeWidth=1;dashed=0;rounded=1;arcSize=5;recursiveResize=0;html=1;whiteSpace=wrap;" vertex="1" parent="1">
          <mxGeometry x="-1020" y="725" width="640" height="295" as="geometry" />
        </mxCell>
        <mxCell id="4CmnmaqwzRjnCDpZ8KeK-152" value="" style="html=1;shadow=0;dashed=0;align=center;verticalAlign=middle;shape=mxgraph.arrows2.arrow;dy=0.6;dx=40;notch=0;" vertex="1" parent="1">
          <mxGeometry x="-460" y="1000" width="50" height="10" as="geometry" />
        </mxCell>
        <mxCell id="4CmnmaqwzRjnCDpZ8KeK-153" value="" style="html=1;shadow=0;dashed=0;align=center;verticalAlign=middle;shape=mxgraph.arrows2.arrow;dy=0.6;dx=40;flipH=1;notch=0;" vertex="1" parent="1">
          <mxGeometry x="-520" y="1000" width="50" height="10" as="geometry" />
        </mxCell>
        <mxCell id="4CmnmaqwzRjnCDpZ8KeK-154" value="Coluna 1&amp;nbsp; |&amp;nbsp; &amp;nbsp;Coluna 2&amp;nbsp; |&amp;nbsp; &amp;nbsp;Coluna 3&amp;nbsp; |&amp;nbsp; &amp;nbsp;Coluna 4&amp;nbsp; |&amp;nbsp; &amp;nbsp;Coluna 5&amp;nbsp; |&amp;nbsp; &amp;nbsp;Coluna 6&amp;nbsp; |&amp;nbsp; &amp;nbsp;Coluna 7&amp;nbsp; |&amp;nbsp; &amp;nbsp;Coluna 8&amp;nbsp; | Botão&amp;nbsp; 1" style="rounded=0;whiteSpace=wrap;html=1;" vertex="1" parent="1">
          <mxGeometry x="-1019" y="735" width="640" height="25" as="geometry" />
        </mxCell>
        <mxCell id="4CmnmaqwzRjnCDpZ8KeK-155" value="Objeto 1&amp;nbsp; |&amp;nbsp; &amp;nbsp; &amp;nbsp;Objeto&amp;nbsp;2&amp;nbsp; |&amp;nbsp; &amp;nbsp; &amp;nbsp;Objeto&amp;nbsp;3&amp;nbsp; |&amp;nbsp; &amp;nbsp; Objeto&amp;nbsp;4&amp;nbsp; |&amp;nbsp; &amp;nbsp;Objeto&amp;nbsp;&amp;nbsp;5&amp;nbsp; |&amp;nbsp; &amp;nbsp;Objeto&amp;nbsp;6&amp;nbsp; |&amp;nbsp; &amp;nbsp;Objeto&amp;nbsp;7&amp;nbsp; |&amp;nbsp; &amp;nbsp;Objeto&amp;nbsp;8&amp;nbsp; |&amp;nbsp; &amp;nbsp; &amp;nbsp; &amp;nbsp; &amp;nbsp; &amp;nbsp; &amp;nbsp;&amp;nbsp;" style="rounded=0;whiteSpace=wrap;html=1;" vertex="1" parent="1">
          <mxGeometry x="-1020" y="760" width="640" height="25" as="geometry" />
        </mxCell>
        <mxCell id="4CmnmaqwzRjnCDpZ8KeK-156" value="&lt;font style=&quot;font-size: 12px;&quot;&gt;detalhes&lt;/font&gt;" style="html=1;shadow=0;dashed=0;shape=mxgraph.bootstrap.rrect;rSize=5;strokeColor=none;strokeWidth=1;fillColor=#33A64C;fontColor=#FFFFFF;whiteSpace=wrap;align=center;verticalAlign=middle;spacingLeft=0;fontStyle=0;fontSize=16;spacing=5;" vertex="1" parent="1">
          <mxGeometry x="-457" y="763.75" width="65" height="17.5" as="geometry" />
        </mxCell>
        <mxCell id="4CmnmaqwzRjnCDpZ8KeK-157" value="Tabelas de agências" style="strokeWidth=1;shadow=0;dashed=0;align=center;html=1;shape=mxgraph.mockup.text.callout;linkText=;textSize=17;textColor=#666666;callDir=NE;callStyle=line;fontSize=17;fontColor=#666666;align=right;verticalAlign=top;strokeColor=#666666;" vertex="1" parent="1">
          <mxGeometry x="-379" y="625" width="249" height="100" as="geometry" />
        </mxCell>
        <mxCell id="4CmnmaqwzRjnCDpZ8KeK-158" value="Itens podem conter botoes" style="strokeWidth=1;shadow=0;dashed=0;align=center;html=1;shape=mxgraph.mockup.text.callout;linkText=;textSize=17;textColor=#666666;callDir=NE;callStyle=line;fontSize=17;fontColor=#666666;align=right;verticalAlign=top;strokeColor=#666666;" vertex="1" parent="1">
          <mxGeometry x="-380" y="680" width="360" height="100" as="geometry" />
        </mxCell>
        <mxCell id="4CmnmaqwzRjnCDpZ8KeK-159" value="&lt;font style=&quot;font-size: 14px;&quot;&gt;Nova agência&lt;/font&gt;" style="html=1;shadow=0;dashed=0;shape=mxgraph.bootstrap.rrect;rSize=5;strokeColor=none;strokeWidth=1;fillColor=#33A64C;fontColor=#FFFFFF;whiteSpace=wrap;align=center;verticalAlign=middle;spacingLeft=0;fontStyle=0;fontSize=16;spacing=5;" vertex="1" parent="1">
          <mxGeometry x="-1019" y="695" width="120" height="30" as="geometry" />
        </mxCell>
        <mxCell id="4CmnmaqwzRjnCDpZ8KeK-162" value="&lt;font style=&quot;font-size: 17px;&quot;&gt;Agências&lt;/font&gt;" style="text;html=1;align=center;verticalAlign=middle;whiteSpace=wrap;rounded=0;" vertex="1" parent="1">
          <mxGeometry x="-1019" y="650" width="70" height="30" as="geometry" />
        </mxCell>
        <mxCell id="4CmnmaqwzRjnCDpZ8KeK-163" value="Página de Contas" style="strokeWidth=1;shadow=0;dashed=0;align=center;html=1;shape=mxgraph.mockup.containers.window;align=left;verticalAlign=top;spacingLeft=8;strokeColor2=#008cff;strokeColor3=#c4c4c4;fontColor=#666666;mainText=;fontSize=17;labelBackgroundColor=none;whiteSpace=wrap;" vertex="1" parent="1">
          <mxGeometry x="-1160" y="1140" width="820" height="470" as="geometry" />
        </mxCell>
        <mxCell id="4CmnmaqwzRjnCDpZ8KeK-164" value="" style="rounded=0;whiteSpace=wrap;html=1;" vertex="1" parent="1">
          <mxGeometry x="-1160" y="1171" width="820" height="34" as="geometry" />
        </mxCell>
        <mxCell id="4CmnmaqwzRjnCDpZ8KeK-165" value="" style="rounded=0;whiteSpace=wrap;html=1;" vertex="1" parent="1">
          <mxGeometry x="-1160" y="1205" width="100" height="405" as="geometry" />
        </mxCell>
        <mxCell id="4CmnmaqwzRjnCDpZ8KeK-166" value="&lt;span style=&quot;font-size: 7px;&quot;&gt;DESLOGAR&lt;/span&gt;" style="html=1;shadow=0;dashed=0;shape=mxgraph.bootstrap.rrect;rSize=5;strokeColor=#0085FC;strokeWidth=1;fillColor=none;fontColor=#0085FC;whiteSpace=wrap;align=center;verticalAlign=middle;spacingLeft=0;fontStyle=0;fontSize=16;spacing=5;" vertex="1" parent="1">
          <mxGeometry x="-400" y="1178" width="50" height="20" as="geometry" />
        </mxCell>
        <mxCell id="4CmnmaqwzRjnCDpZ8KeK-167" value="&lt;span style=&quot;font-size: 7px;&quot;&gt;PERFIL&lt;/span&gt;" style="html=1;shadow=0;dashed=0;shape=mxgraph.bootstrap.rrect;rSize=5;strokeColor=#0085FC;strokeWidth=1;fillColor=none;fontColor=#0085FC;whiteSpace=wrap;align=center;verticalAlign=middle;spacingLeft=0;fontStyle=0;fontSize=16;spacing=5;" vertex="1" parent="1">
          <mxGeometry x="-460" y="1178" width="50" height="20" as="geometry" />
        </mxCell>
        <mxCell id="4CmnmaqwzRjnCDpZ8KeK-168" value="Agencias" style="text;html=1;align=center;verticalAlign=middle;whiteSpace=wrap;rounded=0;" vertex="1" parent="1">
          <mxGeometry x="-1140" y="1220" width="60" height="30" as="geometry" />
        </mxCell>
        <mxCell id="4CmnmaqwzRjnCDpZ8KeK-169" value="Contas" style="text;html=1;align=center;verticalAlign=middle;whiteSpace=wrap;rounded=0;" vertex="1" parent="1">
          <mxGeometry x="-1140" y="1240" width="60" height="30" as="geometry" />
        </mxCell>
        <mxCell id="4CmnmaqwzRjnCDpZ8KeK-170" value="Agencias" style="text;html=1;align=center;verticalAlign=middle;whiteSpace=wrap;rounded=0;" vertex="1" parent="1">
          <mxGeometry x="-1140" y="1255" width="60" height="30" as="geometry" />
        </mxCell>
        <mxCell id="4CmnmaqwzRjnCDpZ8KeK-171" value="Contas" style="text;html=1;align=center;verticalAlign=middle;whiteSpace=wrap;rounded=0;" vertex="1" parent="1">
          <mxGeometry x="-1140" y="1275" width="60" height="30" as="geometry" />
        </mxCell>
        <mxCell id="4CmnmaqwzRjnCDpZ8KeK-172" value="Agencias" style="text;html=1;align=center;verticalAlign=middle;whiteSpace=wrap;rounded=0;" vertex="1" parent="1">
          <mxGeometry x="-1140" y="1295" width="60" height="30" as="geometry" />
        </mxCell>
        <mxCell id="4CmnmaqwzRjnCDpZ8KeK-173" value="Contas" style="text;html=1;align=center;verticalAlign=middle;whiteSpace=wrap;rounded=0;" vertex="1" parent="1">
          <mxGeometry x="-1140" y="1315" width="60" height="30" as="geometry" />
        </mxCell>
        <mxCell id="4CmnmaqwzRjnCDpZ8KeK-174" value="" style="shape=mxgraph.mockup.containers.marginRect;rectMarginTop=10;strokeColor=#666666;strokeWidth=1;dashed=0;rounded=1;arcSize=5;recursiveResize=0;html=1;whiteSpace=wrap;" vertex="1" parent="1">
          <mxGeometry x="-1019" y="1250" width="640" height="340" as="geometry" />
        </mxCell>
        <mxCell id="4CmnmaqwzRjnCDpZ8KeK-175" value="" style="html=1;shadow=0;dashed=0;align=center;verticalAlign=middle;shape=mxgraph.arrows2.arrow;dy=0.6;dx=40;notch=0;" vertex="1" parent="1">
          <mxGeometry x="-450" y="1569" width="50" height="10" as="geometry" />
        </mxCell>
        <mxCell id="4CmnmaqwzRjnCDpZ8KeK-176" value="" style="html=1;shadow=0;dashed=0;align=center;verticalAlign=middle;shape=mxgraph.arrows2.arrow;dy=0.6;dx=40;flipH=1;notch=0;" vertex="1" parent="1">
          <mxGeometry x="-510" y="1569" width="50" height="10" as="geometry" />
        </mxCell>
        <mxCell id="4CmnmaqwzRjnCDpZ8KeK-177" value="Coluna 1&amp;nbsp; |&amp;nbsp; &amp;nbsp;Coluna 2&amp;nbsp; |&amp;nbsp; &amp;nbsp;Coluna 3&amp;nbsp; |&amp;nbsp; &amp;nbsp;Coluna 4&amp;nbsp; |&amp;nbsp; &amp;nbsp;Coluna 5&amp;nbsp; |&amp;nbsp; &amp;nbsp;Coluna 6&amp;nbsp; |&amp;nbsp; &amp;nbsp;Coluna 7&amp;nbsp; |&amp;nbsp; &amp;nbsp;Coluna 8&amp;nbsp; | Botão&amp;nbsp; 1" style="rounded=0;whiteSpace=wrap;html=1;" vertex="1" parent="1">
          <mxGeometry x="-1018" y="1260" width="640" height="25" as="geometry" />
        </mxCell>
        <mxCell id="4CmnmaqwzRjnCDpZ8KeK-178" value="Objeto 1&amp;nbsp; |&amp;nbsp; &amp;nbsp; &amp;nbsp;Objeto&amp;nbsp;2&amp;nbsp; |&amp;nbsp; &amp;nbsp; &amp;nbsp;Objeto&amp;nbsp;3&amp;nbsp; |&amp;nbsp; &amp;nbsp; Objeto&amp;nbsp;4&amp;nbsp; |&amp;nbsp; &amp;nbsp;Objeto&amp;nbsp;&amp;nbsp;5&amp;nbsp; |&amp;nbsp; &amp;nbsp;Objeto&amp;nbsp;6&amp;nbsp; |&amp;nbsp; &amp;nbsp;Objeto&amp;nbsp;7&amp;nbsp; |&amp;nbsp; &amp;nbsp;Objeto&amp;nbsp;8&amp;nbsp; |&amp;nbsp; &amp;nbsp; &amp;nbsp; &amp;nbsp; &amp;nbsp; &amp;nbsp; &amp;nbsp;&amp;nbsp;" style="rounded=0;whiteSpace=wrap;html=1;" vertex="1" parent="1">
          <mxGeometry x="-1019" y="1285" width="640" height="25" as="geometry" />
        </mxCell>
        <mxCell id="4CmnmaqwzRjnCDpZ8KeK-179" value="&lt;font style=&quot;font-size: 12px;&quot;&gt;detalhes&lt;/font&gt;" style="html=1;shadow=0;dashed=0;shape=mxgraph.bootstrap.rrect;rSize=5;strokeColor=none;strokeWidth=1;fillColor=#33A64C;fontColor=#FFFFFF;whiteSpace=wrap;align=center;verticalAlign=middle;spacingLeft=0;fontStyle=0;fontSize=16;spacing=5;" vertex="1" parent="1">
          <mxGeometry x="-456" y="1288.75" width="65" height="17.5" as="geometry" />
        </mxCell>
        <mxCell id="4CmnmaqwzRjnCDpZ8KeK-183" value="&lt;font style=&quot;font-size: 17px;&quot;&gt;Contas&lt;/font&gt;" style="text;html=1;align=center;verticalAlign=middle;whiteSpace=wrap;rounded=0;" vertex="1" parent="1">
          <mxGeometry x="-1019" y="1220" width="70" height="30" as="geometry" />
        </mxCell>
        <mxCell id="4CmnmaqwzRjnCDpZ8KeK-184" value="" style="shape=mxgraph.mockup.containers.marginRect;rectMarginTop=10;strokeColor=#666666;strokeWidth=1;dashed=0;rounded=1;arcSize=5;recursiveResize=0;html=1;whiteSpace=wrap;" vertex="1" parent="1">
          <mxGeometry x="1040" y="5" width="640" height="295" as="geometry" />
        </mxCell>
        <mxCell id="4CmnmaqwzRjnCDpZ8KeK-185" value="" style="html=1;shadow=0;dashed=0;align=center;verticalAlign=middle;shape=mxgraph.arrows2.arrow;dy=0.6;dx=40;notch=0;" vertex="1" parent="1">
          <mxGeometry x="1600" y="280" width="50" height="10" as="geometry" />
        </mxCell>
        <mxCell id="4CmnmaqwzRjnCDpZ8KeK-186" value="" style="html=1;shadow=0;dashed=0;align=center;verticalAlign=middle;shape=mxgraph.arrows2.arrow;dy=0.6;dx=40;flipH=1;notch=0;" vertex="1" parent="1">
          <mxGeometry x="1540" y="280" width="50" height="10" as="geometry" />
        </mxCell>
        <mxCell id="4CmnmaqwzRjnCDpZ8KeK-187" value="Coluna 1&amp;nbsp; |&amp;nbsp; &amp;nbsp;Coluna 2&amp;nbsp; |&amp;nbsp; &amp;nbsp;Coluna 3&amp;nbsp; |&amp;nbsp; &amp;nbsp;Coluna 4&amp;nbsp; |&amp;nbsp; &amp;nbsp;Coluna 5&amp;nbsp; |&amp;nbsp; &amp;nbsp;Coluna 6&amp;nbsp; |&amp;nbsp; &amp;nbsp;Coluna 7&amp;nbsp; |&amp;nbsp; &amp;nbsp;Coluna 8&amp;nbsp; | Botão&amp;nbsp; 1" style="rounded=0;whiteSpace=wrap;html=1;" vertex="1" parent="1">
          <mxGeometry x="1041" y="15" width="640" height="25" as="geometry" />
        </mxCell>
        <mxCell id="4CmnmaqwzRjnCDpZ8KeK-188" value="Objeto 1&amp;nbsp; |&amp;nbsp; &amp;nbsp; &amp;nbsp;Objeto&amp;nbsp;2&amp;nbsp; |&amp;nbsp; &amp;nbsp; &amp;nbsp;Objeto&amp;nbsp;3&amp;nbsp; |&amp;nbsp; &amp;nbsp; Objeto&amp;nbsp;4&amp;nbsp; |&amp;nbsp; &amp;nbsp;Objeto&amp;nbsp;&amp;nbsp;5&amp;nbsp; |&amp;nbsp; &amp;nbsp;Objeto&amp;nbsp;6&amp;nbsp; |&amp;nbsp; &amp;nbsp;Objeto&amp;nbsp;7&amp;nbsp; |&amp;nbsp; &amp;nbsp;Objeto&amp;nbsp;8&amp;nbsp; |&amp;nbsp; &amp;nbsp; &amp;nbsp; &amp;nbsp; &amp;nbsp; &amp;nbsp; &amp;nbsp;&amp;nbsp;" style="rounded=0;whiteSpace=wrap;html=1;" vertex="1" parent="1">
          <mxGeometry x="1040" y="40" width="640" height="25" as="geometry" />
        </mxCell>
        <mxCell id="4CmnmaqwzRjnCDpZ8KeK-189" value="&lt;font style=&quot;font-size: 12px;&quot;&gt;detalhes&lt;/font&gt;" style="html=1;shadow=0;dashed=0;shape=mxgraph.bootstrap.rrect;rSize=5;strokeColor=none;strokeWidth=1;fillColor=#33A64C;fontColor=#FFFFFF;whiteSpace=wrap;align=center;verticalAlign=middle;spacingLeft=0;fontStyle=0;fontSize=16;spacing=5;" vertex="1" parent="1">
          <mxGeometry x="1603" y="43.75" width="65" height="17.5" as="geometry" />
        </mxCell>
      </root>
    </mxGraphModel>
  </diagram>
</mxfile>
